<mxfile host="Electron" agent="Mozilla/5.0 (Macintosh; Intel Mac OS X 10_15_7) AppleWebKit/537.36 (KHTML, like Gecko) draw.io/24.7.17 Chrome/128.0.6613.36 Electron/32.0.1 Safari/537.36" version="24.7.17">
  <diagram name="Page-1" id="3Jy_cLi_bh_WReBdt8x7">
    <mxGraphModel dx="1323" dy="1320" grid="1" gridSize="10" guides="1" tooltips="1" connect="1" arrows="1" fold="1" page="1" pageScale="1" pageWidth="827" pageHeight="1169" math="0" shadow="0">
      <root>
        <mxCell id="0" />
        <mxCell id="1" parent="0" />
        <mxCell id="0KnJnH5cmhYANTK5gAdm-1" value="&lt;b&gt;&lt;font style=&quot;font-size: 20px;&quot;&gt;Pollster&lt;/font&gt;&lt;/b&gt;" style="text;html=1;align=center;verticalAlign=middle;whiteSpace=wrap;rounded=0;" vertex="1" parent="1">
          <mxGeometry x="374" y="60" width="80" height="30" as="geometry" />
        </mxCell>
        <mxCell id="0KnJnH5cmhYANTK5gAdm-6" style="edgeStyle=orthogonalEdgeStyle;rounded=0;orthogonalLoop=1;jettySize=auto;html=1;entryX=0.5;entryY=0;entryDx=0;entryDy=0;exitX=0.5;exitY=0;exitDx=0;exitDy=0;" edge="1" parent="1" source="0KnJnH5cmhYANTK5gAdm-2" target="0KnJnH5cmhYANTK5gAdm-3">
          <mxGeometry relative="1" as="geometry">
            <Array as="points">
              <mxPoint x="225" y="130" />
              <mxPoint x="615" y="130" />
            </Array>
          </mxGeometry>
        </mxCell>
        <mxCell id="0KnJnH5cmhYANTK5gAdm-7" value="call Voters on Exit Poll" style="edgeLabel;html=1;align=center;verticalAlign=middle;resizable=0;points=[];" vertex="1" connectable="0" parent="0KnJnH5cmhYANTK5gAdm-6">
          <mxGeometry x="-0.1447" relative="1" as="geometry">
            <mxPoint x="24" as="offset" />
          </mxGeometry>
        </mxCell>
        <mxCell id="0KnJnH5cmhYANTK5gAdm-2" value="Sleeping" style="ellipse;whiteSpace=wrap;html=1;" vertex="1" parent="1">
          <mxGeometry x="150" y="150" width="150" height="60" as="geometry" />
        </mxCell>
        <mxCell id="0KnJnH5cmhYANTK5gAdm-4" style="edgeStyle=orthogonalEdgeStyle;rounded=0;orthogonalLoop=1;jettySize=auto;html=1;entryX=1;entryY=0.5;entryDx=0;entryDy=0;" edge="1" parent="1" source="0KnJnH5cmhYANTK5gAdm-3" target="0KnJnH5cmhYANTK5gAdm-2">
          <mxGeometry relative="1" as="geometry" />
        </mxCell>
        <mxCell id="0KnJnH5cmhYANTK5gAdm-5" value="Receive Voter Answer" style="edgeLabel;html=1;align=center;verticalAlign=middle;resizable=0;points=[];" vertex="1" connectable="0" parent="0KnJnH5cmhYANTK5gAdm-4">
          <mxGeometry x="0.2286" relative="1" as="geometry">
            <mxPoint x="22" as="offset" />
          </mxGeometry>
        </mxCell>
        <mxCell id="0KnJnH5cmhYANTK5gAdm-3" value="inActivity" style="ellipse;whiteSpace=wrap;html=1;" vertex="1" parent="1">
          <mxGeometry x="540" y="150" width="150" height="60" as="geometry" />
        </mxCell>
        <mxCell id="0KnJnH5cmhYANTK5gAdm-8" style="edgeStyle=orthogonalEdgeStyle;rounded=0;orthogonalLoop=1;jettySize=auto;html=1;exitX=1;exitY=0;exitDx=0;exitDy=0;entryX=1;entryY=1;entryDx=0;entryDy=0;" edge="1" parent="1" source="0KnJnH5cmhYANTK5gAdm-3" target="0KnJnH5cmhYANTK5gAdm-3">
          <mxGeometry relative="1" as="geometry">
            <Array as="points">
              <mxPoint x="668" y="140" />
              <mxPoint x="740" y="140" />
              <mxPoint x="740" y="220" />
              <mxPoint x="668" y="220" />
            </Array>
          </mxGeometry>
        </mxCell>
        <mxCell id="0KnJnH5cmhYANTK5gAdm-9" value="Question for Votes" style="edgeLabel;html=1;align=center;verticalAlign=middle;resizable=0;points=[];" vertex="1" connectable="0" parent="0KnJnH5cmhYANTK5gAdm-8">
          <mxGeometry x="0.0133" y="2" relative="1" as="geometry">
            <mxPoint as="offset" />
          </mxGeometry>
        </mxCell>
        <mxCell id="0KnJnH5cmhYANTK5gAdm-11" style="edgeStyle=orthogonalEdgeStyle;rounded=0;orthogonalLoop=1;jettySize=auto;html=1;exitX=0;exitY=0;exitDx=0;exitDy=0;entryX=0;entryY=1;entryDx=0;entryDy=0;" edge="1" parent="1" source="0KnJnH5cmhYANTK5gAdm-2" target="0KnJnH5cmhYANTK5gAdm-2">
          <mxGeometry relative="1" as="geometry">
            <mxPoint x="172" y="110" as="sourcePoint" />
            <mxPoint x="172" y="210" as="targetPoint" />
            <Array as="points">
              <mxPoint x="172" y="150" />
              <mxPoint x="120" y="150" />
              <mxPoint x="120" y="220" />
              <mxPoint x="172" y="220" />
            </Array>
          </mxGeometry>
        </mxCell>
        <mxCell id="0KnJnH5cmhYANTK5gAdm-12" value="goTo Sleep" style="edgeLabel;html=1;align=center;verticalAlign=middle;resizable=0;points=[];" vertex="1" connectable="0" parent="0KnJnH5cmhYANTK5gAdm-11">
          <mxGeometry x="0.0259" y="-3" relative="1" as="geometry">
            <mxPoint y="-3" as="offset" />
          </mxGeometry>
        </mxCell>
        <mxCell id="0KnJnH5cmhYANTK5gAdm-13" value="&lt;b&gt;&lt;font style=&quot;font-size: 20px;&quot;&gt;Clerk&lt;/font&gt;&lt;/b&gt;" style="text;html=1;align=center;verticalAlign=middle;whiteSpace=wrap;rounded=0;" vertex="1" parent="1">
          <mxGeometry x="384" y="320" width="60" height="30" as="geometry" />
        </mxCell>
        <mxCell id="0KnJnH5cmhYANTK5gAdm-18" style="edgeStyle=orthogonalEdgeStyle;rounded=0;orthogonalLoop=1;jettySize=auto;html=1;entryX=0;entryY=0.5;entryDx=0;entryDy=0;" edge="1" parent="1" source="0KnJnH5cmhYANTK5gAdm-14" target="0KnJnH5cmhYANTK5gAdm-15">
          <mxGeometry relative="1" as="geometry" />
        </mxCell>
        <mxCell id="0KnJnH5cmhYANTK5gAdm-19" value="open/close PS" style="edgeLabel;html=1;align=center;verticalAlign=middle;resizable=0;points=[];" vertex="1" connectable="0" parent="0KnJnH5cmhYANTK5gAdm-18">
          <mxGeometry x="-0.1857" y="-2" relative="1" as="geometry">
            <mxPoint x="26" y="-2" as="offset" />
          </mxGeometry>
        </mxCell>
        <mxCell id="0KnJnH5cmhYANTK5gAdm-34" style="rounded=0;orthogonalLoop=1;jettySize=auto;html=1;exitX=1;exitY=1;exitDx=0;exitDy=0;entryX=0.5;entryY=0;entryDx=0;entryDy=0;edgeStyle=orthogonalEdgeStyle;" edge="1" parent="1" source="0KnJnH5cmhYANTK5gAdm-14" target="0KnJnH5cmhYANTK5gAdm-17">
          <mxGeometry relative="1" as="geometry" />
        </mxCell>
        <mxCell id="0KnJnH5cmhYANTK5gAdm-35" value="call a voter" style="edgeLabel;html=1;align=center;verticalAlign=middle;resizable=0;points=[];" vertex="1" connectable="0" parent="0KnJnH5cmhYANTK5gAdm-34">
          <mxGeometry x="0.0157" y="2" relative="1" as="geometry">
            <mxPoint x="-4" y="2" as="offset" />
          </mxGeometry>
        </mxCell>
        <mxCell id="0KnJnH5cmhYANTK5gAdm-14" value="await" style="ellipse;whiteSpace=wrap;html=1;" vertex="1" parent="1">
          <mxGeometry x="110" y="360" width="150" height="60" as="geometry" />
        </mxCell>
        <mxCell id="0KnJnH5cmhYANTK5gAdm-20" style="rounded=0;orthogonalLoop=1;jettySize=auto;html=1;exitX=0;exitY=1;exitDx=0;exitDy=0;entryX=1;entryY=0;entryDx=0;entryDy=0;" edge="1" parent="1" source="0KnJnH5cmhYANTK5gAdm-15" target="0KnJnH5cmhYANTK5gAdm-17">
          <mxGeometry relative="1" as="geometry" />
        </mxCell>
        <mxCell id="0KnJnH5cmhYANTK5gAdm-21" value="goTo checkingID station" style="edgeLabel;html=1;align=center;verticalAlign=middle;resizable=0;points=[];" vertex="1" connectable="0" parent="0KnJnH5cmhYANTK5gAdm-20">
          <mxGeometry x="0.102" y="-1" relative="1" as="geometry">
            <mxPoint x="4" y="-2" as="offset" />
          </mxGeometry>
        </mxCell>
        <mxCell id="0KnJnH5cmhYANTK5gAdm-15" value="PSstatus" style="ellipse;whiteSpace=wrap;html=1;" vertex="1" parent="1">
          <mxGeometry x="540" y="360" width="150" height="60" as="geometry" />
        </mxCell>
        <mxCell id="0KnJnH5cmhYANTK5gAdm-32" style="rounded=0;orthogonalLoop=1;jettySize=auto;html=1;exitX=0;exitY=0;exitDx=0;exitDy=0;entryX=0.5;entryY=1;entryDx=0;entryDy=0;edgeStyle=orthogonalEdgeStyle;" edge="1" parent="1" source="0KnJnH5cmhYANTK5gAdm-17" target="0KnJnH5cmhYANTK5gAdm-14">
          <mxGeometry relative="1" as="geometry">
            <Array as="points">
              <mxPoint x="185" y="509" />
            </Array>
          </mxGeometry>
        </mxCell>
        <mxCell id="0KnJnH5cmhYANTK5gAdm-33" value="awaiting" style="edgeLabel;html=1;align=center;verticalAlign=middle;resizable=0;points=[];" vertex="1" connectable="0" parent="0KnJnH5cmhYANTK5gAdm-32">
          <mxGeometry x="0.0157" relative="1" as="geometry">
            <mxPoint x="-3" y="-29" as="offset" />
          </mxGeometry>
        </mxCell>
        <mxCell id="0KnJnH5cmhYANTK5gAdm-43" style="rounded=0;orthogonalLoop=1;jettySize=auto;html=1;exitX=1;exitY=1;exitDx=0;exitDy=0;entryX=0;entryY=0.5;entryDx=0;entryDy=0;" edge="1" parent="1" source="0KnJnH5cmhYANTK5gAdm-17" target="0KnJnH5cmhYANTK5gAdm-42">
          <mxGeometry relative="1" as="geometry" />
        </mxCell>
        <mxCell id="0KnJnH5cmhYANTK5gAdm-44" value="fifoPSempty" style="edgeLabel;html=1;align=center;verticalAlign=middle;resizable=0;points=[];" vertex="1" connectable="0" parent="0KnJnH5cmhYANTK5gAdm-43">
          <mxGeometry x="-0.1292" relative="1" as="geometry">
            <mxPoint as="offset" />
          </mxGeometry>
        </mxCell>
        <mxCell id="0KnJnH5cmhYANTK5gAdm-17" value="CheckID" style="ellipse;whiteSpace=wrap;html=1;" vertex="1" parent="1">
          <mxGeometry x="260" y="500" width="150" height="60" as="geometry" />
        </mxCell>
        <mxCell id="0KnJnH5cmhYANTK5gAdm-37" style="edgeStyle=orthogonalEdgeStyle;rounded=0;orthogonalLoop=1;jettySize=auto;html=1;exitX=0;exitY=0.5;exitDx=0;exitDy=0;entryX=0.5;entryY=1;entryDx=0;entryDy=0;" edge="1" parent="1" source="0KnJnH5cmhYANTK5gAdm-17" target="0KnJnH5cmhYANTK5gAdm-17">
          <mxGeometry relative="1" as="geometry" />
        </mxCell>
        <mxCell id="0KnJnH5cmhYANTK5gAdm-38" value="checking ID" style="edgeLabel;html=1;align=center;verticalAlign=middle;resizable=0;points=[];" vertex="1" connectable="0" parent="0KnJnH5cmhYANTK5gAdm-37">
          <mxGeometry x="-0.009" relative="1" as="geometry">
            <mxPoint as="offset" />
          </mxGeometry>
        </mxCell>
        <mxCell id="0KnJnH5cmhYANTK5gAdm-42" value="Announces Elections End" style="ellipse;whiteSpace=wrap;html=1;" vertex="1" parent="1">
          <mxGeometry x="540" y="550" width="150" height="60" as="geometry" />
        </mxCell>
        <mxCell id="0KnJnH5cmhYANTK5gAdm-45" value="&lt;b&gt;&lt;font style=&quot;font-size: 20px;&quot;&gt;Voter&lt;/font&gt;&lt;/b&gt;" style="text;html=1;align=center;verticalAlign=middle;whiteSpace=wrap;rounded=0;" vertex="1" parent="1">
          <mxGeometry x="384" y="710" width="60" height="30" as="geometry" />
        </mxCell>
        <mxCell id="0KnJnH5cmhYANTK5gAdm-58" style="edgeStyle=orthogonalEdgeStyle;rounded=0;orthogonalLoop=1;jettySize=auto;html=1;exitX=1;exitY=0.5;exitDx=0;exitDy=0;entryX=0;entryY=0.5;entryDx=0;entryDy=0;" edge="1" parent="1" source="0KnJnH5cmhYANTK5gAdm-46" target="0KnJnH5cmhYANTK5gAdm-47">
          <mxGeometry relative="1" as="geometry" />
        </mxCell>
        <mxCell id="0KnJnH5cmhYANTK5gAdm-59" value="enterPS" style="edgeLabel;html=1;align=center;verticalAlign=middle;resizable=0;points=[];" vertex="1" connectable="0" parent="0KnJnH5cmhYANTK5gAdm-58">
          <mxGeometry x="-0.1851" y="2" relative="1" as="geometry">
            <mxPoint y="2" as="offset" />
          </mxGeometry>
        </mxCell>
        <mxCell id="0KnJnH5cmhYANTK5gAdm-46" value="await" style="ellipse;whiteSpace=wrap;html=1;" vertex="1" parent="1">
          <mxGeometry x="200" y="770" width="150" height="60" as="geometry" />
        </mxCell>
        <mxCell id="0KnJnH5cmhYANTK5gAdm-60" style="edgeStyle=orthogonalEdgeStyle;rounded=0;orthogonalLoop=1;jettySize=auto;html=1;exitX=0.5;exitY=1;exitDx=0;exitDy=0;entryX=0.5;entryY=0;entryDx=0;entryDy=0;" edge="1" parent="1" source="0KnJnH5cmhYANTK5gAdm-47" target="0KnJnH5cmhYANTK5gAdm-48">
          <mxGeometry relative="1" as="geometry" />
        </mxCell>
        <mxCell id="0KnJnH5cmhYANTK5gAdm-61" value="call a voter" style="edgeLabel;html=1;align=center;verticalAlign=middle;resizable=0;points=[];" vertex="1" connectable="0" parent="0KnJnH5cmhYANTK5gAdm-60">
          <mxGeometry x="-0.0716" y="1" relative="1" as="geometry">
            <mxPoint as="offset" />
          </mxGeometry>
        </mxCell>
        <mxCell id="0KnJnH5cmhYANTK5gAdm-47" value="fifoPS" style="ellipse;whiteSpace=wrap;html=1;" vertex="1" parent="1">
          <mxGeometry x="480" y="770" width="150" height="60" as="geometry" />
        </mxCell>
        <mxCell id="0KnJnH5cmhYANTK5gAdm-66" style="rounded=0;orthogonalLoop=1;jettySize=auto;html=1;exitX=0;exitY=1;exitDx=0;exitDy=0;entryX=1;entryY=0;entryDx=0;entryDy=0;" edge="1" parent="1" source="0KnJnH5cmhYANTK5gAdm-48" target="0KnJnH5cmhYANTK5gAdm-49">
          <mxGeometry relative="1" as="geometry" />
        </mxCell>
        <mxCell id="0KnJnH5cmhYANTK5gAdm-67" value="goVote" style="edgeLabel;html=1;align=center;verticalAlign=middle;resizable=0;points=[];" vertex="1" connectable="0" parent="0KnJnH5cmhYANTK5gAdm-66">
          <mxGeometry x="0.0218" y="2" relative="1" as="geometry">
            <mxPoint as="offset" />
          </mxGeometry>
        </mxCell>
        <mxCell id="0KnJnH5cmhYANTK5gAdm-48" value="checkID" style="ellipse;whiteSpace=wrap;html=1;" vertex="1" parent="1">
          <mxGeometry x="480" y="910" width="150" height="60" as="geometry" />
        </mxCell>
        <mxCell id="0KnJnH5cmhYANTK5gAdm-70" style="rounded=0;orthogonalLoop=1;jettySize=auto;html=1;exitX=0.5;exitY=0;exitDx=0;exitDy=0;entryX=1;entryY=0.5;entryDx=0;entryDy=0;edgeStyle=orthogonalEdgeStyle;" edge="1" parent="1" source="0KnJnH5cmhYANTK5gAdm-49" target="0KnJnH5cmhYANTK5gAdm-50">
          <mxGeometry relative="1" as="geometry" />
        </mxCell>
        <mxCell id="0KnJnH5cmhYANTK5gAdm-71" value="exitPS" style="edgeLabel;html=1;align=center;verticalAlign=middle;resizable=0;points=[];" vertex="1" connectable="0" parent="0KnJnH5cmhYANTK5gAdm-70">
          <mxGeometry x="0.0088" relative="1" as="geometry">
            <mxPoint x="-16" as="offset" />
          </mxGeometry>
        </mxCell>
        <mxCell id="0KnJnH5cmhYANTK5gAdm-49" value="e-voting booth" style="ellipse;whiteSpace=wrap;html=1;" vertex="1" parent="1">
          <mxGeometry x="340" y="1030" width="150" height="60" as="geometry" />
        </mxCell>
        <mxCell id="0KnJnH5cmhYANTK5gAdm-51" style="rounded=0;orthogonalLoop=1;jettySize=auto;html=1;exitX=0.5;exitY=0;exitDx=0;exitDy=0;entryX=0.5;entryY=1;entryDx=0;entryDy=0;" edge="1" parent="1" source="0KnJnH5cmhYANTK5gAdm-50" target="0KnJnH5cmhYANTK5gAdm-46">
          <mxGeometry relative="1" as="geometry" />
        </mxCell>
        <mxCell id="0KnJnH5cmhYANTK5gAdm-52" value="reborn" style="edgeLabel;html=1;align=center;verticalAlign=middle;resizable=0;points=[];" vertex="1" connectable="0" parent="0KnJnH5cmhYANTK5gAdm-51">
          <mxGeometry x="-0.1614" y="1" relative="1" as="geometry">
            <mxPoint as="offset" />
          </mxGeometry>
        </mxCell>
        <mxCell id="0KnJnH5cmhYANTK5gAdm-50" value="exit Poll" style="ellipse;whiteSpace=wrap;html=1;" vertex="1" parent="1">
          <mxGeometry x="150" y="930" width="150" height="60" as="geometry" />
        </mxCell>
        <mxCell id="0KnJnH5cmhYANTK5gAdm-56" style="edgeStyle=orthogonalEdgeStyle;rounded=0;orthogonalLoop=1;jettySize=auto;html=1;exitX=0;exitY=0;exitDx=0;exitDy=0;entryX=0;entryY=1;entryDx=0;entryDy=0;" edge="1" parent="1" source="0KnJnH5cmhYANTK5gAdm-50" target="0KnJnH5cmhYANTK5gAdm-50">
          <mxGeometry relative="1" as="geometry">
            <Array as="points">
              <mxPoint x="172" y="930" />
              <mxPoint x="110" y="930" />
              <mxPoint x="110" y="1000" />
              <mxPoint x="172" y="1000" />
            </Array>
          </mxGeometry>
        </mxCell>
        <mxCell id="0KnJnH5cmhYANTK5gAdm-57" value="answerPollster" style="edgeLabel;html=1;align=center;verticalAlign=middle;resizable=0;points=[];" vertex="1" connectable="0" parent="0KnJnH5cmhYANTK5gAdm-56">
          <mxGeometry x="-0.0749" relative="1" as="geometry">
            <mxPoint y="8" as="offset" />
          </mxGeometry>
        </mxCell>
        <mxCell id="0KnJnH5cmhYANTK5gAdm-62" style="edgeStyle=orthogonalEdgeStyle;rounded=0;orthogonalLoop=1;jettySize=auto;html=1;exitX=1;exitY=0;exitDx=0;exitDy=0;entryX=1;entryY=1;entryDx=0;entryDy=0;" edge="1" parent="1" source="0KnJnH5cmhYANTK5gAdm-47" target="0KnJnH5cmhYANTK5gAdm-47">
          <mxGeometry relative="1" as="geometry">
            <Array as="points">
              <mxPoint x="608" y="770" />
              <mxPoint x="670" y="770" />
              <mxPoint x="670" y="840" />
              <mxPoint x="608" y="840" />
            </Array>
          </mxGeometry>
        </mxCell>
        <mxCell id="0KnJnH5cmhYANTK5gAdm-63" value="waitForCalling" style="edgeLabel;html=1;align=center;verticalAlign=middle;resizable=0;points=[];" vertex="1" connectable="0" parent="0KnJnH5cmhYANTK5gAdm-62">
          <mxGeometry x="0.0357" y="1" relative="1" as="geometry">
            <mxPoint y="-14" as="offset" />
          </mxGeometry>
        </mxCell>
        <mxCell id="0KnJnH5cmhYANTK5gAdm-64" style="edgeStyle=orthogonalEdgeStyle;rounded=0;orthogonalLoop=1;jettySize=auto;html=1;exitX=1;exitY=0;exitDx=0;exitDy=0;entryX=1;entryY=1;entryDx=0;entryDy=0;" edge="1" parent="1" source="0KnJnH5cmhYANTK5gAdm-48" target="0KnJnH5cmhYANTK5gAdm-48">
          <mxGeometry relative="1" as="geometry">
            <Array as="points">
              <mxPoint x="608" y="900" />
              <mxPoint x="670" y="900" />
              <mxPoint x="670" y="980" />
              <mxPoint x="608" y="980" />
            </Array>
          </mxGeometry>
        </mxCell>
        <mxCell id="0KnJnH5cmhYANTK5gAdm-65" value="checking ID" style="edgeLabel;html=1;align=center;verticalAlign=middle;resizable=0;points=[];" vertex="1" connectable="0" parent="0KnJnH5cmhYANTK5gAdm-64">
          <mxGeometry x="0.0986" y="1" relative="1" as="geometry">
            <mxPoint y="-12" as="offset" />
          </mxGeometry>
        </mxCell>
        <mxCell id="0KnJnH5cmhYANTK5gAdm-68" style="edgeStyle=orthogonalEdgeStyle;rounded=0;orthogonalLoop=1;jettySize=auto;html=1;exitX=0;exitY=0;exitDx=0;exitDy=0;entryX=0;entryY=1;entryDx=0;entryDy=0;" edge="1" parent="1" source="0KnJnH5cmhYANTK5gAdm-49" target="0KnJnH5cmhYANTK5gAdm-49">
          <mxGeometry relative="1" as="geometry">
            <Array as="points">
              <mxPoint x="362" y="1030" />
              <mxPoint x="310" y="1030" />
              <mxPoint x="310" y="1100" />
              <mxPoint x="362" y="1100" />
            </Array>
          </mxGeometry>
        </mxCell>
        <mxCell id="0KnJnH5cmhYANTK5gAdm-69" value="voting" style="edgeLabel;html=1;align=center;verticalAlign=middle;resizable=0;points=[];" vertex="1" connectable="0" parent="0KnJnH5cmhYANTK5gAdm-68">
          <mxGeometry x="0.0286" y="-2" relative="1" as="geometry">
            <mxPoint y="-3" as="offset" />
          </mxGeometry>
        </mxCell>
      </root>
    </mxGraphModel>
  </diagram>
</mxfile>
